<svg xmlns="http://www.w3.org/2000/svg" xmlns:xlink="http://www.w3.org/1999/xlink" width="108.81" height="17"><defs><path d="M9 0l2.13 6.49h6.88l-5.57 4.02L14.57 17 9 12.99 3.44 17l2.13-6.49L0 6.49h6.88L9 0z" id="a"/><path d="M9 0l2.13 6.49h6.88l-5.57 4.02L14.57 17 9 12.99 3.44 17l2.13-6.49L0 6.49h6.88L9 0z" id="b"/><path d="M9 0l2.13 6.49h6.88l-5.57 4.02L14.57 17 9 12.99 3.44 17l2.13-6.49L0 6.49h6.88L9 0z" id="c"/><path d="M9 0l2.13 6.49h6.88l-5.57 4.02L14.57 17 9 12.99 3.44 17l2.13-6.49L0 6.49h6.88L9 0z" id="d"/><path d="M31.29 0l2.12 6.49h6.88l-5.56 4.02L36.85 17l-5.56-4.01L25.72 17l2.13-6.49-5.57-4.02h6.88L31.29 0z" id="e"/><path d="M54.29 0l2.13 6.49h6.88l-5.57 4.02L59.86 17l-5.57-4.01L48.73 17l2.12-6.49-5.56-4.02h6.88L54.29 0z" id="f"/><path d="M77.05 0l2.12 6.49h6.88l-5.56 4.02L82.61 17l-5.56-4.01L71.48 17l2.13-6.49-5.57-4.02h6.88L77.05 0z" id="g"/><path d="M99.8 0l2.13 6.49h6.88l-5.57 4.02 2.13 6.49-5.57-4.01L94.24 17l2.13-6.49-5.57-4.02h6.88L99.8 0z" id="h"/></defs><use xlink:href="#a" fill="#81b3d2"/><use xlink:href="#a" fill-opacity="0" stroke="#000" stroke-opacity="0"/><use xlink:href="#b" fill="#81b3d2"/><use xlink:href="#b" fill-opacity="0" stroke="#000" stroke-opacity="0"/><use xlink:href="#c" fill="#81b3d2"/><use xlink:href="#c" fill-opacity="0" stroke="#000" stroke-opacity="0"/><use xlink:href="#d" fill="#81b3d2"/><use xlink:href="#d" fill-opacity="0" stroke="#000" stroke-opacity="0"/><g><use xlink:href="#e" fill="#81b3d2"/><use xlink:href="#e" fill-opacity="0" stroke="#000" stroke-opacity="0"/></g><g><use xlink:href="#f" fill="#81b3d2"/><use xlink:href="#f" fill-opacity="0" stroke="#000" stroke-opacity="0"/></g><g><use xlink:href="#g" fill="#81b3d2"/><use xlink:href="#g" fill-opacity="0" stroke="#000" stroke-opacity="0"/></g><g><use xlink:href="#h" fill="#81b3d2"/><use xlink:href="#h" fill-opacity="0" stroke="#000" stroke-opacity="0"/></g></svg>
