<svg xmlns="http://www.w3.org/2000/svg" xmlns:xlink="http://www.w3.org/1999/xlink" width="113.03" height="17"><defs><path d="M9 0l2.13 6.49h6.88l-5.57 4.02L14.57 17 9 12.99 3.44 17l2.12-6.49L0 6.49h6.88L9 0z" id="a"/><path d="M32.01 0l2.12 6.49h6.88l-5.56 4.02L37.57 17l-5.56-4.01L26.44 17l2.13-6.49-5.56-4.02h6.87L32.01 0z" id="b"/><path d="M56.01 0l2.13 6.49h6.88l-5.57 4.02L61.58 17l-5.57-4.01L50.45 17l2.12-6.49-5.56-4.02h6.88L56.01 0z" id="c"/><path d="M81.02 0l2.12 6.49h6.88l-5.56 4.02L86.58 17l-5.56-4.01L75.45 17l2.13-6.49-5.56-4.02h6.87L81.02 0z" id="d"/><path d="M104.02 0l2.13 6.49h6.88l-5.57 4.02 2.13 6.49-5.57-4.01L98.46 17l2.12-6.49-5.56-4.02h6.88L104.02 0z" id="e"/></defs><use xlink:href="#a" fill="#81b3d2"/><use xlink:href="#a" fill-opacity="0" stroke="#000" stroke-opacity="0"/><use xlink:href="#b" fill="#81b3d2"/><use xlink:href="#b" fill-opacity="0" stroke="#000" stroke-opacity="0"/><use xlink:href="#c" fill="#81b3d2"/><use xlink:href="#c" fill-opacity="0" stroke="#000" stroke-opacity="0"/><g><use xlink:href="#d" fill="#81b3d2"/><use xlink:href="#d" fill-opacity="0" stroke="#000" stroke-opacity="0"/></g><g><use xlink:href="#e" fill="#81b3d2"/><use xlink:href="#e" fill-opacity="0" stroke="#000" stroke-opacity="0"/></g></svg>
